<svg xmlns="http://www.w3.org/2000/svg" xmlns:xlink="http://www.w3.org/1999/xlink" width="31" height="31" viewBox="0 0 31 31"><defs><style>.a{fill:#edf1f8;}.b{fill:url(#a);}.c{fill:url(#b);}.d{fill:url(#c);}.e{fill:url(#d);}.f{fill:url(#e);}.g{fill:url(#f);}.h{fill:url(#g);}.i{fill:url(#h);}.j{fill:#fff;}</style><radialGradient id="a" cx="0.205" cy="0.874" r="1.103" gradientUnits="objectBoundingBox"><stop offset="0" stop-color="#fae100"/><stop offset="0.054" stop-color="#fadc04"/><stop offset="0.117" stop-color="#fbce0e"/><stop offset="0.183" stop-color="#fcb720"/><stop offset="0.251" stop-color="#fe9838"/><stop offset="0.305" stop-color="#ff7950"/><stop offset="0.492" stop-color="#ff1c74"/><stop offset="1" stop-color="#6c1cd1"/></radialGradient><linearGradient id="b" x1="0.369" y1="0.426" x2="-1.54" y2="-0.648" gradientUnits="objectBoundingBox"><stop offset="0" stop-color="#a1b5d8" stop-opacity="0"/><stop offset="0.309" stop-color="#90a2bd" stop-opacity="0.31"/><stop offset="0.755" stop-color="#7c8b9c" stop-opacity="0.757"/><stop offset="1" stop-color="#748290"/></linearGradient><linearGradient id="c" x1="0.5" y1="0.413" x2="0.5" y2="1.193" gradientUnits="objectBoundingBox"><stop offset="0" stop-color="#fae100" stop-opacity="0"/><stop offset="0.307" stop-color="#fca800" stop-opacity="0.306"/><stop offset="0.627" stop-color="#fe7300" stop-opacity="0.627"/><stop offset="0.868" stop-color="#ff5200" stop-opacity="0.867"/><stop offset="1" stop-color="#ff4500"/></linearGradient><linearGradient id="d" x1="0.316" y1="0.311" x2="0.012" y2="0.005" gradientUnits="objectBoundingBox"><stop offset="0" stop-color="#833ab4" stop-opacity="0"/><stop offset="1" stop-color="#833ab4"/></linearGradient><linearGradient id="e" x1="0.452" y1="1.133" x2="0.345" y2="-0.549" xlink:href="#d"/><linearGradient id="f" x1="0.605" y1="0.605" x2="-0.16" y2="-0.16" xlink:href="#d"/><linearGradient id="g" x1="0.376" y1="0.332" x2="-0.072" y2="-0.063" xlink:href="#d"/><linearGradient id="h" x1="0.816" y1="0.182" x2="0.172" y2="0.835" gradientUnits="objectBoundingBox"><stop offset="0" stop-color="#833ab4"/><stop offset="0.092" stop-color="#9c3495"/><stop offset="0.293" stop-color="#dc2546"/><stop offset="0.392" stop-color="#fd1d1d"/><stop offset="0.559" stop-color="#fc6831"/><stop offset="0.689" stop-color="#fc9b40"/><stop offset="0.752" stop-color="#fcaf45"/><stop offset="0.781" stop-color="#fdb750"/><stop offset="0.866" stop-color="#fecb6a"/><stop offset="0.942" stop-color="#ffd87a"/><stop offset="1" stop-color="#ffdc80"/></linearGradient></defs><g transform="translate(-1060 -4293)"><g transform="translate(1060 4293)"><ellipse class="a" cx="15.5" cy="15.5" rx="15.5" ry="15.5" transform="translate(0 0)"/></g><g transform="translate(-50 -74)"><g transform="translate(1115.657 4372.657)"><path class="b" d="M20,3.64A3.7,3.7,0,0,0,16.709.348,61.459,61.459,0,0,0,3.64.348,3.705,3.705,0,0,0,.348,3.64a61.459,61.459,0,0,0,0,13.069A3.705,3.705,0,0,0,3.64,20a61.46,61.46,0,0,0,13.069,0A3.7,3.7,0,0,0,20,16.708,61.459,61.459,0,0,0,20,3.64Zm0,0" transform="translate(0 0)"/><path class="c" d="M46.581,32.064a3.288,3.288,0,0,0-2.92-2.921,54.558,54.558,0,0,0-11.6,0,3.288,3.288,0,0,0-2.921,2.921,54.557,54.557,0,0,0,0,11.6,3.288,3.288,0,0,0,2.921,2.921,54.536,54.536,0,0,0,11.6,0,3.288,3.288,0,0,0,2.921-2.921A54.536,54.536,0,0,0,46.581,32.064Zm0,0" transform="translate(-27.688 -27.688)"/><path class="d" d="M7.672,409.8q.021.211.043.422a3.705,3.705,0,0,0,3.291,3.291,61.456,61.456,0,0,0,13.069,0,3.7,3.7,0,0,0,3.291-3.291q.023-.211.044-.422Zm0,0" transform="translate(-7.367 -393.518)"/><path class="e" d="M111.311,110.158a61.508,61.508,0,0,0,.346-7.022l-4.651-4.651a3.331,3.331,0,0,0-2.427-1.113c-2.051-.074-4.108-.07-6.16,0a3.292,3.292,0,0,0-3.2,2.887c-.054.3-.086.6-.129.9v4.934c.023.16.058.319.069.48a3.587,3.587,0,0,0,1.163,2.494l4.733,4.733a61.515,61.515,0,0,0,6.965-.347A3.705,3.705,0,0,0,111.311,110.158Zm0,0" transform="translate(-91.311 -93.449)"/><path class="f" d="M141.236,138.436a3.705,3.705,0,0,1-3.291,3.291,61.543,61.543,0,0,1-6.965.347l-4.726-4.726a3.314,3.314,0,0,0,2.091.8c2.051.077,4.109.075,6.159,0a3.3,3.3,0,0,0,3.255-3.295c.062-1.969.062-3.944,0-5.913a3.433,3.433,0,0,0-.825-2.178l4.648,4.648A61.614,61.614,0,0,1,141.236,138.436Zm0,0" transform="translate(-121.236 -121.728)"/><path class="g" d="M179.652,175.048a3.259,3.259,0,1,0-4.6,4.6l7.541,7.541q.6-.052,1.2-.116a3.705,3.705,0,0,0,3.291-3.291q.064-.6.116-1.2Zm0,0" transform="translate(-167.077 -167.077)"/><path class="h" d="M330.746,157.117l-6.069-6.069a.775.775,0,1,0-1.085,1.085l7.046,7.046Q330.709,158.149,330.746,157.117Zm0,0" transform="translate(-310.437 -144.751)"/><path class="i" d="M95.09,101.156c.042-.3.075-.6.129-.9a3.292,3.292,0,0,1,3.2-2.887c2.051-.07,4.109-.074,6.16,0a3.3,3.3,0,0,1,3.255,3.295q.092,2.954,0,5.914a3.3,3.3,0,0,1-3.255,3.295c-2.051.074-4.109.076-6.16,0a3.353,3.353,0,0,1-3.261-3.3c-.011-.161-.045-.32-.069-.48Zm6.4,7.619c.939,0,1.878.028,2.816-.007a2.29,2.29,0,0,0,2.408-2.4q.064-2.744,0-5.491a2.276,2.276,0,0,0-2.408-2.4q-2.8-.059-5.6,0a2.262,2.262,0,0,0-2.4,2.362q-.075,2.779,0,5.561a2.277,2.277,0,0,0,2.4,2.365C99.632,108.8,100.56,108.775,101.487,108.775Zm0,0" transform="translate(-91.311 -93.449)"/><g transform="translate(3.779 3.868)"><path class="j" d="M95.09,101.156c.042-.3.075-.6.129-.9a3.292,3.292,0,0,1,3.2-2.887c2.051-.07,4.109-.074,6.16,0a3.3,3.3,0,0,1,3.255,3.295q.092,2.954,0,5.914a3.3,3.3,0,0,1-3.255,3.295c-2.051.074-4.109.076-6.16,0a3.353,3.353,0,0,1-3.261-3.3c-.011-.161-.045-.32-.069-.48Zm6.4,7.619c.939,0,1.878.028,2.816-.007a2.29,2.29,0,0,0,2.408-2.4q.064-2.744,0-5.491a2.276,2.276,0,0,0-2.408-2.4q-2.8-.059-5.6,0a2.262,2.262,0,0,0-2.4,2.362q-.075,2.779,0,5.561a2.277,2.277,0,0,0,2.4,2.365C99.632,108.8,100.56,108.775,101.487,108.775Zm0,0" transform="translate(-95.09 -97.317)"/><path class="j" d="M177.251,174a3.259,3.259,0,1,0,3.259,3.259A3.259,3.259,0,0,0,177.251,174Zm0,5.4a2.137,2.137,0,1,1,2.137-2.137A2.137,2.137,0,0,1,177.251,179.392Zm0,0" transform="translate(-170.856 -170.949)"/><path class="j" d="M324.836,151.518a.775.775,0,1,1-.775-.775A.775.775,0,0,1,324.836,151.518Zm0,0" transform="translate(-314.216 -148.619)"/></g></g></g></g></svg>