<svg xmlns="http://www.w3.org/2000/svg" width="31" height="31" viewBox="0 0 31 31"><defs><style>.a{fill:#007ab9;}.b{fill:#f1f2f2;}</style></defs><ellipse class="a" cx="15.5" cy="15.5" rx="15.5" ry="15.5" transform="translate(0 0)"/><g transform="translate(7.479 6.623)"><path class="b" d="M44.35,34.093v6.39h-3.7V34.522c0-1.5-.535-2.519-1.876-2.519a2.027,2.027,0,0,0-1.9,1.355,2.536,2.536,0,0,0-.123.9v6.223H33.041s.05-10.1,0-11.143h3.706v1.579c-.007.012-.018.025-.025.036h.025v-.036a3.679,3.679,0,0,1,3.339-1.841c2.438,0,4.265,1.593,4.265,5.015ZM29.165,23.969a1.931,1.931,0,1,0-.049,3.851h.024a1.931,1.931,0,1,0,.025-3.851ZM27.288,40.484h3.7V29.34h-3.7Z" transform="translate(-27.068 -23.969)"/></g></svg>