<svg xmlns="http://www.w3.org/2000/svg" width="31" height="31" viewBox="0 0 31 31"><defs><style>.a{fill:#55acee;}.b{fill:#f1f2f2;}</style></defs><ellipse class="a" cx="15.5" cy="15.5" rx="15.5" ry="15.5" transform="translate(0 0)"/><g transform="translate(6.936 9.402)"><path class="b" d="M43.162,35.765a7.392,7.392,0,0,1-2.128.583A3.715,3.715,0,0,0,42.663,34.3a7.417,7.417,0,0,1-2.353.9A3.708,3.708,0,0,0,34,38.577a10.517,10.517,0,0,1-7.637-3.872,3.709,3.709,0,0,0,1.146,4.947,3.679,3.679,0,0,1-1.678-.464c0,.016,0,.031,0,.047A3.707,3.707,0,0,0,28.8,42.868a3.719,3.719,0,0,1-1.673.064,3.709,3.709,0,0,0,3.461,2.573A7.479,7.479,0,0,1,25.1,47.039a10.536,10.536,0,0,0,16.221-8.877c0-.161,0-.321-.011-.479a7.513,7.513,0,0,0,1.849-1.918Z" transform="translate(-25.103 -34.028)"/></g></svg>